<svg width="41" height="48" viewBox="0 0 41 48" fill="none" xmlns="http://www.w3.org/2000/svg">
<path fill-rule="evenodd" clip-rule="evenodd" d="M34.9257 10.4406C34.9257 12.3567 34.587 14.0366 33.9097 15.4804C33.2324 16.9241 32.2609 18.0381 30.9954 18.8224C29.7388 19.6067 28.295 19.9988 26.6641 19.9988C25.051 19.9988 23.6117 19.6111 22.3462 18.8358C21.5558 18.3515 20.8766 17.7386 20.3087 16.997C20.6842 16.2334 20.872 15.3268 20.872 14.2772C20.872 13.181 20.5824 12.2542 20.0031 11.4966C19.5732 10.9258 19.0219 10.4991 18.3491 10.2167V9.6505C18.896 9.33018 19.3449 8.91175 19.6956 8.39522C20.1858 7.66443 20.4309 6.82223 20.4309 5.86863C20.4309 4.97022 20.2694 4.1838 19.9464 3.50935C20.574 2.53745 21.3606 1.7598 22.3061 1.1764C23.5716 0.392131 25.0154 -2.22211e-06 26.6374 -2.22211e-06C28.2594 -2.22211e-06 29.6987 0.392131 30.9553 1.1764C32.2208 1.95175 33.1967 3.07022 33.8829 4.53181C34.5781 5.98449 34.9257 7.66442 34.9257 9.57162V10.4406ZM19.9464 3.50935C19.7399 3.82914 19.5506 4.16996 19.3785 4.53181C18.6922 5.98449 18.3491 7.66888 18.3491 9.58499V9.6505C18.1317 9.77785 17.8987 9.8897 17.6503 9.98604C17.8962 10.0475 18.1291 10.1244 18.3491 10.2167V10.5475C18.358 12.419 18.7101 14.0767 19.4052 15.5205C19.6662 16.0591 19.9673 16.5513 20.3087 16.997C20.0145 17.5951 19.6052 18.1056 19.0807 18.5283C17.8864 19.4908 16.1842 19.981 13.974 19.9988H6.40762V16.5777L13.8537 16.7771C14.7984 16.7771 15.5336 16.5543 16.0595 16.1087C16.5942 15.6541 16.8615 15.0303 16.8615 14.2371C16.8615 12.4547 15.9391 11.5501 14.0943 11.5234L6.40762 11.3351V0.534727H13.2254C15.5871 0.534727 17.3784 0.989246 18.5994 1.89828C19.1924 2.33545 19.6414 2.87247 19.9464 3.50935ZM30.8617 9.55825C30.8617 7.51737 30.4963 5.96666 29.7655 4.90612C29.0347 3.84558 27.992 3.31531 26.6374 3.31531C25.2917 3.31531 24.2534 3.84112 23.5226 4.89275C22.7918 5.93547 22.422 7.46836 22.413 9.49141V10.4406C22.413 12.428 22.7784 13.9698 23.5092 15.0659C24.24 16.1621 25.2917 16.7102 26.6641 16.7102C28.0099 16.7102 29.0437 16.1844 29.7655 15.1328C30.4874 14.0722 30.8528 12.5304 30.8617 10.5074V9.55825ZM10.4181 8.68932H13.3858C15.4089 8.65367 16.4204 7.84712 16.4204 6.26968C16.4204 5.38738 16.1619 4.75462 15.645 4.3714C15.137 3.97926 14.3305 3.7832 13.2254 3.7832H10.4181V8.68932Z" fill="white"/>
<path fill-rule="evenodd" clip-rule="evenodd" d="M0.118724 17.02C-0.0121821 17.1509 -0.0152308 17.1925 0.0172258 18.4014C0.100749 21.5141 1.18287 24.9771 3.0712 28.1744C4.56344 30.7012 4.82709 31.4095 5.07932 33.5684C5.25729 35.0915 5.36882 35.7669 5.5271 36.2792C5.75506 37.0173 5.99661 36.9152 6.10427 36.0353C6.14232 35.7243 6.20323 35.397 6.23975 35.3078L6.30606 35.1458L6.35452 35.3681C6.3812 35.4904 6.45132 35.8334 6.51039 36.1303C6.82499 37.711 7.59454 39.2748 8.66695 40.5129C9.07847 40.988 9.23516 41.0861 9.36899 40.9522C9.44743 40.8738 9.44654 40.8118 9.36251 40.4899C9.30909 40.2854 9.2753 40.1082 9.28743 40.0962C9.2995 40.0841 9.6872 40.6417 10.149 41.3354C11.3638 43.1601 12.1302 44.1968 12.2646 44.1968C12.4249 44.1968 12.4515 44.1275 12.4696 43.6618C12.4897 43.1449 12.5081 43.1288 12.8503 43.3294C13.2248 43.5488 13.6694 44.0462 14.2642 44.911C15.1663 46.2223 15.503 46.5792 16.1184 46.8762C16.6628 47.1389 17.3193 47.3017 18.0353 47.3516C18.5723 47.3891 18.7001 47.4241 19.2422 47.6826C20.1363 48.1091 20.6518 48.1064 21.5752 47.6706C22.1414 47.4034 22.2999 47.3577 22.8455 47.3048C24.8684 47.1086 25.2384 46.8802 26.7144 44.917C27.5452 43.812 28.1318 43.1806 28.3277 43.1806C28.4441 43.1806 28.4548 43.2229 28.4548 43.6865C28.4548 44.5642 28.6682 44.5106 29.5115 43.4212C29.9546 42.8488 30.6159 41.7708 31.1594 40.7352C31.6738 39.755 31.7682 39.6808 31.6037 40.3858C31.4353 41.1076 31.6362 41.1444 32.232 40.5008C33.3304 39.3145 34.1658 37.6048 34.4608 35.9398C34.6336 34.9647 34.6795 34.9708 34.8084 35.9859C34.9151 36.8263 34.916 36.829 35.0888 36.829C35.3805 36.829 35.5906 35.9959 35.8237 33.9159C36.076 31.6649 36.4253 30.6458 37.7208 28.3814C39.7502 24.8343 40.6426 21.959 40.7571 18.5977C40.7916 17.5868 40.7847 17.4735 40.6828 17.3716C40.4555 17.1444 40.3233 17.2556 39.9195 18.0133C39.0149 19.7111 37.7722 21.0726 35.4415 22.9197C34.4627 23.6953 33.0598 25.1239 32.6196 25.7931C32.376 26.1634 32.2143 26.3489 32.1352 26.3489C31.7168 26.3489 30.6813 25.7471 29.4251 24.7738C28.4064 23.9847 28.0258 23.7256 27.3432 23.3568C24.9359 22.0563 22.1791 22.1454 20.8637 23.5661C20.6721 23.7731 20.5153 23.9694 20.5153 24.0024C20.5153 24.0353 20.4581 24.0623 20.3882 24.0623C20.3184 24.0623 20.2612 24.0353 20.2612 24.0024C20.2612 23.8418 19.5319 23.1727 19.122 22.9573C16.9648 21.8237 14.3738 22.4257 11.369 24.7584C10.1301 25.7201 9.25225 26.2451 8.74558 26.3274C8.52594 26.363 8.51635 26.3556 8.34924 26.0229C7.89307 25.1146 6.94986 24.1358 5.14442 22.6971C2.95312 20.9508 1.49035 19.2001 0.765951 17.4566C0.524273 16.8749 0.368659 16.77 0.118724 17.02ZM20.7176 27.0419C20.7984 27.0738 21.0683 27.3008 21.3173 27.5463C22.7206 28.9302 25.5875 29.9693 28.0024 29.9693C28.3338 29.9693 28.5818 29.9956 28.5818 30.0307C28.5818 30.1949 26.6331 31.5699 26.01 31.8454C25.3544 32.1353 24.7278 32.0182 23.6275 31.4C22.5537 30.7967 22.182 30.7466 21.2457 31.079C20.6822 31.2791 20.3281 31.2797 19.7078 31.0816C18.8275 30.8004 18.5057 30.8661 17.4161 31.549C16.5147 32.1139 15.7692 32.2779 15.11 32.0562C14.6444 31.8997 12.157 30.1452 12.2309 30.0255C12.2501 29.9946 12.4912 29.9693 12.7668 29.9693C15.2185 29.9693 17.9749 28.967 19.4941 27.5233C19.7588 27.2717 20.0183 27.0497 20.0707 27.0299C20.2225 26.9727 20.5576 26.9789 20.7176 27.0419Z" fill="white"/>
</svg>
