<svg width="16" height="17" viewBox="0 0 16 17" fill="none" xmlns="http://www.w3.org/2000/svg">
<path d="M11.7711 13.8639L11.5095 13.9947C10.4195 14.6487 9.19882 14.9539 7.97807 14.9539C4.14151 14.9539 1.00251 11.8149 1.00251 7.97831C1.00251 6.14725 1.7437 4.35975 3.05157 3.05181C4.35951 1.74387 6.10345 1.00275 7.97807 1.00275C11.8146 1.00275 14.9537 4.14175 14.9101 8.02193C14.9101 9.32981 14.5177 10.5942 13.8638 11.6841L13.6894 11.9457L14.3869 14.5179L11.7711 13.8639Z" fill="#00E676"/>
<path d="M2.31044 2.35425C3.79275 0.828375 5.84181 0 7.9345 0C12.3814 0 15.9564 3.61856 15.9128 8.02187C15.9128 9.417 15.5204 10.7686 14.8664 11.9892L16 16.131L11.7711 15.0411C10.5939 15.6951 9.28606 16.0002 7.97806 16.0002C3.57475 16.0002 -0.000249863 12.3816 -0.000249863 7.97837C-0.000249863 5.84206 0.828125 3.83656 2.31038 2.35425H2.31044ZM7.9345 14.6487C9.11162 14.6487 10.2888 14.3436 11.2915 13.7332L11.5531 13.6024L14.0817 14.2564L13.4278 11.7714L13.6021 11.5097C15.5204 8.41437 14.6049 4.31612 11.4659 2.39781C8.32688 0.479563 4.27231 1.39512 2.354 4.53412C0.43575 7.67312 1.35131 11.7277 4.49025 13.646C5.49306 14.2999 6.71375 14.6487 7.9345 14.6487V14.6487ZM4.09794 9.8095L4.5775 9.5915C4.5775 9.5915 5.275 9.28631 5.711 9.06831C5.75463 9.06831 5.79819 9.02469 5.84181 9.02469C5.97262 9.02469 6.05981 9.06831 6.147 9.11194C6.147 9.11194 6.19056 9.1555 6.80094 9.85306C6.84456 9.94025 6.93175 9.98387 7.01894 9.98387H7.06256C7.10613 9.98387 7.19331 9.94025 7.23694 9.89669L7.45494 9.8095C7.9345 9.5915 8.37044 9.32987 8.71925 8.98112C8.80644 8.89394 8.93725 8.80675 9.02444 8.71956C9.32963 8.41437 9.63481 8.06556 9.85275 7.67319L9.89638 7.586C9.93994 7.54237 9.93994 7.49881 9.98356 7.41162C9.98356 7.32444 9.98356 7.23725 9.93994 7.19362C9.93994 7.19362 9.76556 6.97562 9.63481 6.84487C9.54756 6.75762 9.504 6.62687 9.41681 6.53969C9.32963 6.40887 9.286 6.2345 9.32963 6.10369C9.37319 5.88569 9.89637 4.70856 10.0271 4.447C10.1144 4.31619 10.2015 4.27262 10.3323 4.229H10.8119C10.8991 4.229 10.9862 4.27262 11.0735 4.27262L11.1171 4.31619C11.2043 4.35981 11.2915 4.447 11.3787 4.49056C11.4659 4.57781 11.5095 4.66494 11.5967 4.75219C11.9019 5.14456 12.0763 5.62412 12.0763 6.10369C12.0763 6.45244 11.9891 6.80125 11.8583 7.10644L11.8146 7.23725C11.4222 8.06556 10.8991 8.80675 10.2015 9.46069L10.0271 9.63506C9.89637 9.76587 9.76556 9.85306 9.67837 9.98381C8.76281 10.7686 7.7165 11.3354 6.53938 11.6406C6.40856 11.6841 6.23419 11.6841 6.10338 11.7277H5.66744C5.44944 11.7277 5.18787 11.6406 5.01344 11.5534C4.88269 11.4662 4.7955 11.4662 4.70831 11.379L4.62106 11.2917C4.53387 11.2046 4.44669 11.161 4.3595 11.0738C4.27231 10.9866 4.18513 10.8994 4.1415 10.8122C4.05431 10.6378 4.01075 10.4198 3.96712 10.2019V9.89669C3.96712 9.89669 4.01075 9.85306 4.09794 9.8095Z" fill="white" fill-opacity="0.8"/>
</svg>
